<svg width="44" height="45" viewBox="0 0 44 45" fill="none" xmlns="http://www.w3.org/2000/svg">
<rect y="0.640625" width="44" height="44" rx="22" fill="white" fill-opacity="0.75"/>
<path d="M30.05 22.6408H13.8677L19.79 14.8558C19.8257 14.8088 19.854 14.7531 19.8733 14.6917C19.8926 14.6304 19.9025 14.5647 19.9025 14.4983C19.9025 14.4319 19.8926 14.3661 19.8733 14.3048C19.854 14.2434 19.8257 14.1877 19.79 14.1408C19.7543 14.0938 19.712 14.0566 19.6653 14.0312C19.6187 14.0058 19.5688 13.9927 19.5183 13.9927C19.4678 13.9927 19.4179 14.0058 19.3713 14.0312C19.3246 14.0566 19.2823 14.0938 19.2466 14.1408L12.6821 22.7858C12.6641 22.8092 12.6482 22.8352 12.6346 22.8633C12.6282 22.8752 12.6225 22.8877 12.6175 22.9008L12.5985 22.9508L12.5871 23.0008C12.586 23.0149 12.586 23.0291 12.5871 23.0433C12.5774 23.1076 12.5774 23.1739 12.5871 23.2383C12.586 23.2524 12.586 23.2666 12.5871 23.2808L12.5985 23.3308L12.6175 23.3808C12.6225 23.3938 12.6282 23.4063 12.6346 23.4183C12.6482 23.4463 12.6641 23.4723 12.6821 23.4958L19.2466 32.1408C19.282 32.1884 19.3243 32.2262 19.3709 32.2521C19.4176 32.2779 19.4677 32.2912 19.5183 32.2912C19.5689 32.2912 19.619 32.2779 19.6657 32.2521C19.7123 32.2262 19.7546 32.1884 19.79 32.1408C19.8253 32.0943 19.8534 32.0392 19.8725 31.9785C19.8916 31.9178 19.9015 31.8527 19.9015 31.787C19.9015 31.7213 19.8916 31.6562 19.8725 31.5955C19.8534 31.5348 19.8253 31.4797 19.79 31.4333L13.8677 23.6408H30.05C30.1508 23.6408 30.2474 23.5881 30.3187 23.4943C30.39 23.4005 30.43 23.2734 30.43 23.1408C30.43 23.0081 30.39 22.881 30.3187 22.7872C30.2474 22.6934 30.1508 22.6408 30.05 22.6408Z" fill="black"/>
</svg>
